<?xml version="1.0" encoding="UTF-8"?>
<svg id="Layer_1" data-name="Layer 1" xmlns="http://www.w3.org/2000/svg" xmlns:xlink="http://www.w3.org/1999/xlink" viewBox="0 0 1165.55 302.68">
  <defs>
    <style>
      .cls-1 {
        fill: url(#linear-gradient-8);
      }

      .cls-2 {
        fill: url(#linear-gradient-7);
      }

      .cls-3 {
        fill: url(#linear-gradient-5);
      }

      .cls-4 {
        fill: url(#linear-gradient-6);
      }

      .cls-5 {
        fill: url(#linear-gradient-9);
      }

      .cls-6 {
        fill: url(#linear-gradient-4);
      }

      .cls-7 {
        fill: url(#linear-gradient-3);
      }

      .cls-8 {
        fill: url(#linear-gradient-2);
      }

      .cls-9 {
        fill: url(#linear-gradient);
      }

      .cls-10 {
        stroke-width: 6.2px;
      }

      .cls-10, .cls-11 {
        fill: none;
        stroke: #2042bc;
        stroke-miterlimit: 10;
      }

      .cls-11 {
        stroke-width: 4.82px;
      }
    </style>
    <linearGradient id="linear-gradient" x1="100.93" y1="72.74" x2="100.93" y2="220.94" gradientUnits="userSpaceOnUse">
      <stop offset="0" stop-color="#2a4ef6"/>
      <stop offset=".31" stop-color="#294df2"/>
      <stop offset=".54" stop-color="#274be9"/>
      <stop offset=".76" stop-color="#2447d8"/>
      <stop offset=".96" stop-color="#2043c1"/>
      <stop offset="1" stop-color="#2042bc"/>
    </linearGradient>
    <linearGradient id="linear-gradient-2" x1="200.03" y1="73.35" x2="200.03" y2="223.74" xlink:href="#linear-gradient"/>
    <linearGradient id="linear-gradient-3" x1="282.92" y1="106.14" x2="282.92" y2="223.74" xlink:href="#linear-gradient"/>
    <linearGradient id="linear-gradient-4" x1="398.42" y1="106.14" x2="398.42" y2="223.74" xlink:href="#linear-gradient"/>
    <linearGradient id="linear-gradient-5" x1="500.72" y1="106.14" x2="500.72" y2="223.74" xlink:href="#linear-gradient"/>
    <linearGradient id="linear-gradient-6" x1="697.02" y1="114.53" x2="638.87" y2="215.26" xlink:href="#linear-gradient"/>
    <linearGradient id="linear-gradient-7" x1="794.5" y1="115.8" x2="733.78" y2="220.97" xlink:href="#linear-gradient"/>
    <linearGradient id="linear-gradient-8" x1="879.19" y1="100.1" x2="815.03" y2="211.23" xlink:href="#linear-gradient"/>
    <linearGradient id="linear-gradient-9" x1="1007.78" y1="79.81" x2="926.59" y2="220.44" xlink:href="#linear-gradient"/>
  </defs>
  <g>
    <path class="cls-9" d="M47.63,220.94V72.74h48.6c10.93,0,20.77,1.47,29.5,4.4,8.73,2.93,15.67,7.77,20.8,14.5,5.13,6.73,7.7,15.97,7.7,27.7s-2.57,20.43-7.7,27.7c-5.13,7.27-12,12.63-20.6,16.1-8.6,3.47-18.23,5.2-28.9,5.2h-19.8v52.6h-29.6ZM77.23,144.94h17.8c10.13,0,17.7-2.13,22.7-6.4,5-4.27,7.5-10.67,7.5-19.2s-2.63-14.5-7.9-17.9c-5.27-3.4-13.03-5.1-23.3-5.1h-16.8v48.6Z"/>
    <path class="cls-8" d="M206.43,223.74c-6.94,0-12.4-1.43-16.4-4.3s-6.9-6.87-8.7-12c-1.8-5.13-2.7-11.1-2.7-17.9v-116.19h29.4v117.39c0,3.33.63,5.67,1.9,7,1.27,1.33,2.56,2,3.9,2,.67,0,1.27-.03,1.8-.1.53-.07,1.27-.17,2.2-.3l3.6,21.8c-1.73.67-3.83,1.27-6.3,1.8-2.47.53-5.37.8-8.7.8Z"/>
    <path class="cls-7" d="M269.02,223.74c-6.54,0-12.3-1.43-17.3-4.3s-8.87-6.83-11.6-11.9c-2.73-5.07-4.1-10.8-4.1-17.2,0-11.87,5.13-21.1,15.4-27.7,10.27-6.6,26.6-11.1,49-13.5-.13-3.73-.8-7.03-2-9.9-1.2-2.87-3.17-5.17-5.9-6.9-2.73-1.73-6.44-2.6-11.1-2.6-5.2,0-10.33,1-15.4,3-5.07,2-10.2,4.6-15.4,7.8l-10.4-19.6c4.4-2.8,9.07-5.27,14-7.4,4.93-2.13,10.13-3.9,15.6-5.3,5.47-1.4,11.13-2.1,17-2.1,9.47,0,17.4,1.87,23.8,5.6,6.4,3.73,11.2,9.27,14.4,16.6,3.2,7.33,4.8,16.4,4.8,27.2v65.4h-24l-2-12h-1c-4.8,4.27-10,7.8-15.6,10.6-5.6,2.8-11.67,4.2-18.2,4.2ZM278.82,200.74c4.13,0,7.9-.97,11.3-2.9,3.4-1.93,6.83-4.63,10.3-8.1v-22.4c-9.07,1.07-16.27,2.6-21.6,4.6-5.33,2-9.13,4.37-11.4,7.1-2.27,2.73-3.4,5.77-3.4,9.1,0,4.4,1.37,7.6,4.1,9.6,2.73,2,6.3,3,10.7,3Z"/>
    <path class="cls-6" d="M407.42,223.74c-10.27,0-19.53-2.33-27.8-7-8.27-4.67-14.8-11.37-19.6-20.1-4.8-8.73-7.2-19.3-7.2-31.7s2.63-22.97,7.9-31.7c5.27-8.73,12.27-15.43,21-20.1,8.73-4.67,18.17-7,28.3-7,6.93,0,13.07,1.17,18.4,3.5,5.33,2.33,10.07,5.37,14.2,9.1l-14,18.6c-2.67-2.4-5.4-4.2-8.2-5.4-2.8-1.2-5.73-1.8-8.8-1.8-5.73,0-10.77,1.43-15.1,4.3-4.33,2.87-7.67,6.9-10,12.1-2.33,5.2-3.5,11.33-3.5,18.4s1.17,13.2,3.5,18.4c2.33,5.2,5.6,9.23,9.8,12.1,4.2,2.87,8.97,4.3,14.3,4.3,4,0,7.87-.87,11.6-2.6,3.73-1.73,7.13-3.87,10.2-6.4l11.6,19.4c-5.33,4.67-11.23,8.1-17.7,10.3-6.47,2.2-12.77,3.3-18.9,3.3Z"/>
    <path class="cls-3" d="M507.02,223.74c-10.4,0-19.8-2.33-28.2-7-8.4-4.67-15.1-11.4-20.1-20.2-5-8.8-7.5-19.33-7.5-31.6,0-9.07,1.43-17.2,4.3-24.4,2.87-7.2,6.8-13.37,11.8-18.5,5-5.13,10.6-9.07,16.8-11.8,6.2-2.73,12.63-4.1,19.3-4.1,10.27,0,18.87,2.3,25.8,6.9,6.93,4.6,12.17,10.93,15.7,19,3.53,8.07,5.3,17.3,5.3,27.7,0,2.67-.13,5.23-.4,7.7-.27,2.47-.6,4.43-1,5.9h-69c.8,6,2.6,11.07,5.4,15.2,2.8,4.13,6.4,7.23,10.8,9.3,4.4,2.07,9.4,3.1,15,3.1,4.53,0,8.8-.63,12.8-1.9,4-1.27,8.07-3.17,12.2-5.7l10,18c-5.47,3.73-11.6,6.73-18.4,9-6.8,2.27-13.67,3.4-20.6,3.4ZM479.22,153.54h45.8c0-7.46-1.7-13.43-5.1-17.9-3.4-4.47-8.77-6.7-16.1-6.7-3.87,0-7.53.9-11,2.7-3.47,1.8-6.4,4.53-8.8,8.2-2.4,3.67-4,8.23-4.8,13.7Z"/>
  </g>
  <circle class="cls-11" cx="570.87" cy="258.24" r="11.33"/>
  <circle class="cls-11" cx="1050.97" cy="259.45" r="11.33"/>
  <circle class="cls-11" cx="593.17" cy="54.86" r="11.33"/>
  <circle class="cls-11" cx="1061.06" cy="50.41" r="11.33"/>
  <circle class="cls-11" cx="1117.64" cy="191.42" r="11.33"/>
  <line class="cls-10" x1="590.62" y1="66.05" x2="571.36" y2="245.12"/>
  <line class="cls-10" x1="583.33" y1="260.37" x2="1038.42" y2="261.53"/>
  <line class="cls-10" x1="604.63" y1="52.05" x2="1049.06" y2="50.85"/>
  <line class="cls-10" x1="1061.02" y1="62.51" x2="1052.43" y2="248.41"/>
  <line class="cls-10" x1="1066.56" y1="61.64" x2="1114.49" y2="179.48"/>
  <line class="cls-10" x1="1106.04" y1="195.04" x2="1056.22" y2="196.2"/>
  <g>
    <path class="cls-4" d="M668.48,223.83c-9.92,0-18.84-2.31-26.76-6.92-7.92-4.61-14.19-11.29-18.81-20.04-4.62-8.75-6.92-19.32-6.92-31.72s2.48-23.18,7.44-31.93c4.96-8.75,11.57-15.46,19.84-20.15,8.27-4.68,17.15-7.03,26.66-7.03,7.3,0,13.6,1.31,18.91,3.93,5.3,2.62,9.88,5.72,13.74,9.3l-9.51,12.4c-3.17-2.89-6.58-5.23-10.23-7.03-3.65-1.79-7.68-2.69-12.09-2.69-6.75,0-12.81,1.79-18.19,5.37-5.37,3.58-9.58,8.61-12.61,15.08-3.03,6.48-4.55,14.05-4.55,22.73s1.48,16.05,4.44,22.52c2.96,6.48,7.03,11.5,12.19,15.09,5.17,3.58,11.19,5.37,18.08,5.37,5.23,0,10.05-1.07,14.47-3.2,4.41-2.13,8.4-4.79,11.99-7.96l8.27,12.81c-5.1,4.41-10.75,7.85-16.94,10.33-6.2,2.48-12.68,3.72-19.43,3.72Z"/>
    <path class="cls-2" d="M749.13,223.83c-6.2,0-11.78-1.24-16.74-3.72-4.96-2.48-8.85-6.1-11.68-10.85-2.83-4.75-4.24-10.5-4.24-17.26,0-12.26,5.48-21.66,16.43-28.21,10.95-6.54,28.41-11.12,52.39-13.74,0-4.82-.66-9.4-1.96-13.74-1.31-4.34-3.62-7.85-6.92-10.54-3.31-2.69-8.06-4.03-14.26-4.03s-12.57,1.28-18.29,3.82c-5.72,2.55-10.85,5.27-15.4,8.16l-7.23-13.02c3.44-2.2,7.44-4.44,11.99-6.72,4.55-2.27,9.51-4.17,14.88-5.68,5.37-1.51,11.09-2.27,17.15-2.27,9.09,0,16.5,1.93,22.21,5.79,5.71,3.86,9.92,9.2,12.61,16.02s4.03,14.91,4.03,24.28v69.02h-15.5l-1.65-13.43h-.62c-5.24,4.41-10.99,8.2-17.26,11.37-6.27,3.17-12.92,4.75-19.94,4.75ZM754.51,208.54c5.37,0,10.5-1.24,15.4-3.72,4.89-2.48,10.02-6.13,15.4-10.95v-31.2c-12.54,1.38-22.52,3.34-29.96,5.89-7.44,2.55-12.74,5.65-15.91,9.3-3.17,3.65-4.75,7.96-4.75,12.92,0,6.48,1.93,11.06,5.79,13.74,3.86,2.69,8.54,4.03,14.05,4.03Z"/>
    <path class="cls-1" d="M832.19,221.14v-112.21h15.5l1.86,20.46h.41c3.85-7.16,8.58-12.84,14.16-17.05,5.58-4.2,11.47-6.3,17.67-6.3,2.62,0,4.86.17,6.72.52,1.86.35,3.62,1,5.27,1.96l-3.51,16.33c-1.93-.55-3.65-1-5.17-1.34-1.52-.34-3.44-.52-5.79-.52-4.55,0-9.44,1.96-14.67,5.89-5.24,3.93-9.71,10.64-13.43,20.15v72.12h-19.01Z"/>
    <path class="cls-5" d="M945.26,223.83c-9.37,0-17.53-2.27-24.49-6.82-6.96-4.55-12.33-11.19-16.12-19.94-3.79-8.75-5.68-19.39-5.68-31.93s2.27-22.59,6.82-31.41c4.55-8.82,10.5-15.63,17.88-20.46,7.37-4.82,15.32-7.23,23.87-7.23,6.61,0,12.3,1.14,17.05,3.41,4.75,2.27,9.61,5.48,14.57,9.61l-1.03-19.22v-26.18h19.01v147.48h-15.5l-1.65-13.23h-.62c-4.41,4.41-9.51,8.16-15.29,11.26s-12.06,4.65-18.81,4.65ZM949.39,207.92c5.23,0,10.19-1.27,14.88-3.82,4.68-2.55,9.3-6.37,13.85-11.47v-58.89c-4.69-4.27-9.23-7.3-13.64-9.09-4.41-1.79-8.96-2.69-13.64-2.69-5.93,0-11.33,1.83-16.22,5.48-4.89,3.65-8.82,8.68-11.78,15.08-2.96,6.41-4.44,13.88-4.44,22.42s1.24,16.67,3.72,23.14c2.48,6.48,6.02,11.4,10.64,14.78,4.61,3.38,10.16,5.06,16.64,5.06Z"/>
  </g>
</svg>